# xmcd
#
# Track frame offsets: 
#        150
#        15224
#        31306
#        44375
#        53564
#        70470
#        88112
#        109281
#        127206
#        140291
#        150291
#        160144
#
# Disc length: 2367 seconds
#
# Revision: 0
# Processed by: cddbd v1.5.2PL0 Copyright (c) Steve Scherf et al.
# Submitted via: ExactAudioCopy v0.99pb4
#
DISCID=96093d0c
DTITLE=Tasta Barnegospel - Det store rare huset
DYEAR=2008
DGENRE=Gospel
TTITLE0=Gledesgospel
TTITLE1=Jeg tror jeg tror
TTITLE2=Det store rare huset
TTITLE3=Alle like
TTITLE4=Jeg kan ikke gå på vannet
TTITLE5=Gud bor på Tasta
TTITLE6=Plass for sånne som oss
TTITLE7=Sammen du og jeg
TTITLE8=En jord
TTITLE9=Den vei som er din
TTITLE10=Ikke se og ikke høre
TTITLE11=Dine hender
EXTD=
EXTT0=
EXTT1=
EXTT2=
EXTT3=
EXTT4=
EXTT5=
EXTT6=
EXTT7=
EXTT8=
EXTT9=
EXTT10=
EXTT11=
PLAYORDER=
